<svg width="221" height="313" viewBox="0 0 221 313" fill="none" xmlns="http://www.w3.org/2000/svg">
<path d="M182 309H64V313H182V309Z" fill="#EBEBEB"/>
<path d="M182 1H64V5H182V1Z" fill="#EBEBEB"/>
<path d="M46.85 23.5196C58.8074 5.86951 73.1494 1.86362 81 2.11398C54.9356 -2.09203 37.1669 6.62042 31.5406 11.5024C6.41764 31.3307 0.137788 106.388 0.138224 141.438C-0.385148 156.084 0.295236 199.271 7.20375 254.85C14.1123 310.429 51.4287 316.063 69.2234 311.932C40.9613 303.219 36.2953 264.99 33.112 251.095C28.0876 229.164 26.3079 192.511 26.0465 175.988C24.7904 155.258 28.1394 103.634 30.7563 80.6011C33.9989 52.0605 42.0159 30.6549 46.85 23.5196Z" fill="#979797"/>
<path d="M46.85 23.5196C58.8074 5.86951 73.1494 1.86362 81 2.11398C54.9356 -2.09203 37.1669 6.62042 31.5406 11.5024C31.1209 11.8336 30.7065 12.1803 30.2972 12.5419C34.6379 18.1797 34.3403 30.0057 28.9835 41.9486C23.7077 53.7109 15.1368 61.9924 7.94154 63.0756C2.04066 90.7292 0.137984 122.145 0.138224 141.438C-0.369214 155.638 0.254924 196.668 6.58995 249.809C13.565 251.468 21.5958 259.52 26.6283 270.74C32.1657 283.086 32.297 295.306 27.4873 300.696C41.3405 313.402 58.6973 314.375 69.2234 311.932C43.9188 304.131 37.5302 272.668 34.1854 256.195C33.7945 254.27 33.4451 252.549 33.112 251.095C28.0876 229.164 26.3079 192.511 26.0465 175.988C24.7904 155.258 28.1394 103.634 30.7563 80.6011C33.9989 52.0605 42.0159 30.6549 46.85 23.5196Z" fill="#EBEBEB"/>
<path d="M74.7069 213.312C90.0671 213.012 102.623 225.222 102.751 240.584C102.88 255.946 90.532 268.643 75.1718 268.943C59.8116 269.242 47.2558 257.032 47.1274 241.67C46.999 226.308 59.3467 213.612 74.7069 213.312Z" stroke="#979797" stroke-width="4"/>
<path fill-rule="evenodd" clip-rule="evenodd" d="M100.804 232.009C93.0256 231.756 78.8004 231.293 80.8044 214.482C78.418 213.285 72.3402 212.544 67.0903 215.718C65.2955 221.764 62.5293 239.676 67.5164 266.805C70.3733 267.831 77.5332 269.294 81.6537 266.53C79.9761 260.423 81.5079 249.043 102.548 248.632L102.41 232.068C101.916 232.045 101.377 232.028 100.804 232.009ZM81.0812 240.534C81.055 237.398 78.4914 234.905 75.3553 234.966C72.2193 235.027 69.6982 237.619 69.7244 240.756C69.7506 243.892 72.3142 246.385 75.4503 246.324C78.5864 246.263 81.1074 243.67 81.0812 240.534Z" fill="#979797"/>
</svg>
