<svg width="59" height="313" viewBox="0 0 59 313" fill="none" xmlns="http://www.w3.org/2000/svg">
<g clip-path="url(#clip0_1821_24428)">
<path fill-rule="evenodd" clip-rule="evenodd" d="M0.733765 312.734L10.7339 312.734C12.6034 312.734 14.4479 312.627 16.2616 312.419C40.1677 309.675 58.7339 289.351 58.7339 264.687L58.7339 48.7804C58.7339 24.1165 40.1678 3.79273 16.2617 1.04906C14.448 0.840863 12.6034 0.733756 10.734 0.733756L0.733751 0.733757L0.733751 4.73765L10.7339 4.73765C28.407 4.73764 42.7339 24.4568 42.7339 48.7804L42.7339 264.687C42.7339 289.011 28.407 308.73 10.7339 308.73L0.733764 308.73L0.733765 312.734Z" fill="#EBEBEB"/>
</g>
<defs>
<clipPath id="clip0_1821_24428">
<rect width="312" height="58" fill="white" transform="translate(0.733765 312.734) rotate(-90)"/>
</clipPath>
</defs>
</svg>
